<?xml version="1.0" encoding="iso-8859-1"?>
<svg version="1.1" id="Capa_1" xmlns="http://www.w3.org/2000/svg" xmlns:xlink="http://www.w3.org/1999/xlink" x="0px" y="0px"
	 viewBox="0 0 42.384 42.384" style="enable-background:new 0 0 42.384 42.384;" xml:space="preserve">
<g>
	<g>
		<g>
			<path style="fill:#010002;" d="M18.851,12.902c-1.338-0.142-3.551,0.679-3.936,2.822c-0.385-2.144-2.596-2.964-3.933-2.822
				c-1.635,0.176-3.793,0.896-3.247,4.248c0.549,3.349,7.209,9.086,7.209,9.086s6.604-5.737,7.151-9.086
				C22.646,13.799,20.485,13.078,18.851,12.902z"/>
			<path style="fill:#010002;" d="M28.12,3.26V0H1.712v39.123h12.553v3.261h26.407V3.26H28.12z M3.016,37.818V1.305h23.799V16.82
				v11.307v9.691L3.016,37.818L3.016,37.818z M39.368,41.079h-23.8v-1.956H28.12v-9.795c0.113,0.102,0.191,0.168,0.191,0.168
				s6.604-5.736,7.151-9.087c0.548-3.35-1.61-4.07-3.246-4.246c-1.337-0.142-3.551,0.679-3.935,2.822
				c-0.035-0.192-0.102-0.362-0.163-0.536V4.565h11.247v36.514L39.368,41.079L39.368,41.079z"/>
			<path style="fill:#010002;" d="M8.819,7.324H6.312V7.308l0.439-0.412c1.181-1.139,1.93-1.974,1.93-3.009
				c0-0.801-0.507-1.627-1.714-1.627c-0.638,0-1.198,0.248-1.577,0.566l0.241,0.536c0.258-0.216,0.681-0.474,1.188-0.474
				c0.837,0,1.104,0.526,1.104,1.095c0,0.844-0.655,1.566-2.085,2.929L5.243,7.49v0.464h3.576V7.324z"/>
			<path style="fill:#010002;" d="M21.309,35.184l0.439-0.414c1.181-1.136,1.93-1.973,1.93-3.006c0-0.802-0.508-1.63-1.715-1.63
				c-0.637,0-1.197,0.25-1.576,0.568l0.242,0.536c0.258-0.217,0.68-0.475,1.188-0.475c0.836,0,1.103,0.525,1.103,1.094
				c0,0.846-0.655,1.567-2.085,2.93l-0.594,0.578v0.465h3.575v-0.629H21.31v-0.017H21.309z"/>
			<path style="fill:#010002;" d="M34.483,35.148c0.258-0.213,0.681-0.475,1.188-0.475c0.836,0,1.103,0.528,1.103,1.096
				c0,0.845-0.654,1.567-2.084,2.931l-0.594,0.577v0.466h3.575v-0.63h-2.507v-0.018l0.439-0.414
				c1.181-1.137,1.931-1.974,1.931-3.007c0-0.803-0.507-1.628-1.714-1.628c-0.639,0-1.198,0.249-1.577,0.567L34.483,35.148z"/>
		</g>
	</g>
</g>
</svg>
